<svg id="SvgjsSvg1000" xmlns="http://www.w3.org/2000/svg" version="1.1" xmlns:xlink="http://www.w3.org/1999/xlink" xmlns:svgjs="http://svgjs.com/svgjs" width="2136" height="135"><defs id="SvgjsDefs1001"></defs><path id="SvgjsPath1007" d="M-390.875 1138.71C-246.953 1138.71 -79.80680000000001 1117.6200000000001 113.08800000000002 1117.6200000000001C306.928 1117.6200000000001 427.93600000000004 1136.0000000000002 684 1136.0000000000002C854.1 1136.0000000000002 1126.08 1093.7000000000003 1325 1140.0000000000002C1325 1186.2700000000002 1324 1251.9400000000003 1324 1251.9400000000003L-377.125 1235.9900000000002C-377.125 1235.9900000000002 -399.919 1138.7100000000003 -390.875 1138.7100000000003Z " fill="#ade1f7" transform="matrix(1,0,0,1,393,-1117)"></path><path id="SvgjsPath1008" d="M-390.875 1138.71C-246.953 1138.71 -79.80680000000001 1117.6200000000001 113.08800000000002 1117.6200000000001C306.928 1117.6200000000001 427.93600000000004 1136.0000000000002 684 1136.0000000000002C854.1 1136.0000000000002 1126.08 1093.7000000000003 1325 1140.0000000000002C1325 1186.2700000000002 1324 1251.9400000000003 1324 1251.9400000000003L-377.125 1235.9900000000002C-377.125 1235.9900000000002 -399.919 1138.7100000000003 -390.875 1138.7100000000003Z " fill="#73cbf2" fill-opacity="1" transform="matrix(1,0,0,1,393,-1117)"></path><path id="SvgjsPath1009" d="M1383 1147C1239.07 1147 1071.91 1126 879 1126C685.146 1126 562.0830000000001 1150 306 1150C135.888 1150 -131.06900000000002 1090.89 -330 1137C-330 1183.07 -332 1200 -332 1200L1369.25 1213.99C1369.25 1213.99 1392.04 1147 1383 1147Z " fill="#ade1f7" transform="matrix(1,0,0,1,393,-1117)"></path><path id="SvgjsPath1010" d="M1383 1147C1239.07 1147 1071.91 1126 879 1126C685.146 1126 562.0830000000001 1150 306 1150C135.888 1150 -131.06900000000002 1090.89 -330 1137C-330 1183.07 -332 1200 -332 1200L1369.25 1213.99C1369.25 1213.99 1392.04 1147 1383 1147Z " fill="#73cbf2" fill-opacity="1" transform="matrix(1,0,0,1,393,-1117)"></path><path id="SvgjsPath1011" d="M-86.0008 1169.05C24.476100000000002 1169.05 181.092 1147.08 382.879 1147.08C634.437 1147.08 808.2360000000001 1171.81 986.725 1169.05C1162.96 1166.33 1442.17 1131.08 1703.54 1133.09C1754.42 1191.36 1739.96 1207.1599999999999 1740.53 1212L-89 1206.01C-89 1206.01 -86.7254 1189.32 -86.0008 1169.05Z " fill="#aaddf4" transform="matrix(1,0,0,1,393,-1117)"></path><path id="SvgjsPath1012" d="M-156 1172.79C27.119699999999995 1172.79 110.262 1194 304 1194C463.128 1194 644.4780000000001 1169 872 1169C1059.23 1169 1101.67 1183 1209 1183C1331.57 1183 1408.3600000000001 1190.98 1482 1191C1482 1201.17 1484 1219 1484 1219L-159 1213C-159 1213 -136.272 1207.45 -156 1172.79Z " fill="#89d1f3" transform="matrix(1,0,0,1,393,-1117)"></path></svg>